<?xml version="1.0" encoding="UTF-8"?>
<svg version="1.1" xmlns="http://www.w3.org/2000/svg" width="135" height="22">
<path d="M0 0 C2.97 0 5.94 0 9 0 C9.99 2.97 10.98 5.94 12 9 C12.99 6.03 13.98 3.06 15 0 C18.3 0 21.6 0 25 0 C25 7.26 25 14.52 25 22 C22.69 22 20.38 22 18 22 C17.505 19.525 17.505 19.525 17 17 C16.01 19.475 16.01 19.475 15 22 C13.02 22 11.04 22 9 22 C8.34 19.69 7.68 17.38 7 15 C6.67 17.31 6.34 19.62 6 22 C4.02 22 2.04 22 0 22 C0 14.74 0 7.48 0 0 Z " fill="#FFFFFF" transform="translate(0,0)"/>
<path d="M0 0 C2.31 0 4.62 0 7 0 C7.33 2.64 7.66 5.28 8 8 C8.66 7.34 9.32 6.68 10 6 C12.68839385 5.73008094 15.29141936 5.91262643 18 6 C16.02 8.97 16.02 8.97 14 12 C15.65 15.3 17.3 18.6 19 22 C13.62694301 22.44041451 13.62694301 22.44041451 11 22 C9 19.5 9 19.5 8 17 C7.67 18.65 7.34 20.3 7 22 C4.69 22 2.38 22 0 22 C0 14.74 0 7.48 0 0 Z " fill="#FFFFFF" transform="translate(48,0)"/>
<path d="M0 0 C1.43859375 -0.00773438 1.43859375 -0.00773438 2.90625 -0.015625 C5.5 0.25 5.5 0.25 8.5 2.25 C9.01171875 5.5078125 9.01171875 5.5078125 9.1875 9.375 C9.25324219 10.65632813 9.31898437 11.93765625 9.38671875 13.2578125 C9.42410156 14.24523438 9.46148437 15.23265625 9.5 16.25 C6.70807795 16.30380578 3.9171859 16.34357669 1.125 16.375 C0.3309375 16.39175781 -0.463125 16.40851562 -1.28125 16.42578125 C-3.35492015 16.44335473 -5.42883241 16.35335168 -7.5 16.25 C-8.16 15.59 -8.82 14.93 -9.5 14.25 C-9.3125 11.75 -9.3125 11.75 -8.5 9.25 C-5.05549263 6.95366176 -2.56187717 6.70983515 1.5 6.25 C1.5 5.59 1.5 4.93 1.5 4.25 C0.51 4.91 -0.48 5.57 -1.5 6.25 C-4.6875 6.375 -4.6875 6.375 -7.5 6.25 C-7.83 4.93 -8.16 3.61 -8.5 2.25 C-5.14802157 0.01534771 -3.92208754 -0.02108649 0 0 Z M-2.5 10.25 C-2.17 10.91 -1.84 11.57 -1.5 12.25 C-0.51 11.92 0.48 11.59 1.5 11.25 C0.18 10.92 -1.14 10.59 -2.5 10.25 Z " fill="#FFFFFF" transform="translate(36.5,5.75)"/>
<path d="M0 0 C2.31 0 4.62 0 7 0 C7.33 3.3 7.66 6.6 8 10 C8.33 10 8.66 10 9 10 C9.33 6.7 9.66 3.4 10 0 C12.31 0 14.62 0 17 0 C17 5.28 17 10.56 17 16 C14.33333333 16 11.66666667 16 9 16 C7.845 16.04125 6.69 16.0825 5.5 16.125 C2 16 2 16 0 14 C-0.1953125 10.7421875 -0.1953125 10.7421875 -0.125 6.875 C-0.10695313 5.59367188 -0.08890625 4.31234375 -0.0703125 2.9921875 C-0.04710938 2.00476563 -0.02390625 1.01734375 0 0 Z " fill="#FFFFFF" transform="translate(98,6)"/>
<path d="M0 0 C2.66666667 0 5.33333333 0 8 0 C9.155 -0.04125 10.31 -0.0825 11.5 -0.125 C15 0 15 0 17 2 C17.1953125 5.2578125 17.1953125 5.2578125 17.125 9.125 C17.10695313 10.40632813 17.08890625 11.68765625 17.0703125 13.0078125 C17.04710938 13.99523438 17.02390625 14.98265625 17 16 C14.69 16 12.38 16 10 16 C9.67 12.7 9.34 9.4 9 6 C8.67 6 8.34 6 8 6 C7.67 9.3 7.34 12.6 7 16 C4.69 16 2.38 16 0 16 C0 10.72 0 5.44 0 0 Z " fill="#FFFFFF" transform="translate(78,6)"/>
<path d="M0 0 C2.31 0 4.62 0 7 0 C7 7.26 7 14.52 7 22 C4.69 22 2.38 22 0 22 C0 14.74 0 7.48 0 0 Z " fill="#FFFFFF" transform="translate(118,0)"/>
<path d="M0 0 C2.31 0 4.62 0 7 0 C7 5.28 7 10.56 7 16 C4.69 16 2.38 16 0 16 C0 10.72 0 5.44 0 0 Z " fill="#FFFFFF" transform="translate(68,6)"/>
<path d="M0 0 C2.31 0 4.62 0 7 0 C7 1.98 7 3.96 7 6 C4.69 6 2.38 6 0 6 C0 4.02 0 2.04 0 0 Z " fill="#FFFFFF" transform="translate(128,16)"/>
<path d="M0 0 C2.31 0 4.62 0 7 0 C7 1.32 7 2.64 7 4 C4.69 4 2.38 4 0 4 C0 2.68 0 1.36 0 0 Z " fill="#FFFFFF" transform="translate(68,0)"/>
</svg>
